<svg xmlns="http://www.w3.org/2000/svg" viewBox="0 0 62.71 120"><defs><style>.cls-1{fill:#ceb38d;}.cls-1,.cls-2{fill-rule:evenodd;}.cls-2{fill:#3d3d3d;}</style></defs><title>weissenhaus-bildmarke</title><g id="Ebene_2" data-name="Ebene 2"><g id="Ebene_1-2" data-name="Ebene 1"><path class="cls-1" d="M31,6.86,29.34,3.21l-.21-.44A2.16,2.16,0,0,1,29.7.57,2.44,2.44,0,0,1,30.46,0c.16-.08.29,0,.22.19a1.72,1.72,0,0,0,0,1.47l1.49,2.79,1.5-2.79a1.68,1.68,0,0,0,0-1.47c-.07-.16.06-.27.22-.19a2.44,2.44,0,0,1,.76.54,2.16,2.16,0,0,1,.58,2.2l-.22.44L33.33,6.8l1.34,2.74L39,1a.46.46,0,0,1,.43-.26h1.71c.27,0,.43.18.35.44l-6.1,12.45a.39.39,0,0,1-.35.26h-.31a.33.33,0,0,1-.33-.2L32.22,9.22,30,13.71a.33.33,0,0,1-.33.2h-.31a.39.39,0,0,1-.35-.26L22.92,1.2c-.08-.26.08-.44.35-.44H25a.46.46,0,0,1,.43.26l4.31,8.52Z"/><path class="cls-2" d="M37,58.17a3.89,3.89,0,0,1,4.25,6.13,8.35,8.35,0,0,1-2.94,2.15l-1.92.68a15.39,15.39,0,0,0-1.85.8,9.62,9.62,0,0,0-2.25,1.6A9.57,9.57,0,0,0,30,67.93a15.54,15.54,0,0,0-1.86-.8c-.59-.22-1.23-.43-1.92-.68a8.29,8.29,0,0,1-2.92-2.14,3.83,3.83,0,0,1-.87-2.45A3.88,3.88,0,0,1,26.33,58a3.93,3.93,0,0,1,1.18.18c.71.26,1.41.54,2.13.77a10.93,10.93,0,0,0,2.48.54h.58l.54-.06a10,10,0,0,0,1.09-.22c.31-.09.6-.19.88-.3C35.77,58.68,36.31,58.42,37,58.17ZM33.08,33.28c.76-.67,2-1.73,2.35-1.94l0-.45A8.69,8.69,0,0,1,36,28.7c1.17-2.95,3.64-5.08,5.53-4.31,1.31.53,2,2.52,1.9,4.44-1.3.13-3.89,1-4.49,2.18.73-.69,3.31-.94,4.33-.89a14.08,14.08,0,0,1,3.46.6,7.52,7.52,0,0,1,8.06-1.51c1.38,2.8,1.28,4.44-.21,7.23l-.11.21a5.89,5.89,0,0,1-1.92,2.11,8.07,8.07,0,0,0,3.11-.44C58.88,41.76,60.54,47,60.56,53a12.28,12.28,0,0,0,1,5.18c2.35,5,.32,7,.32,7-1.47-1.53-3-.93-2.89-.79,3.25,3.67,3.21,10.38.27,12.73-.87-2.31-1.78-3-3.83-3.32,3.88,3.9,3.07,12-.77,14.25.33-3.46-.66-7.19-3.22-7.47,4.19,5.8.38,19.12-4.75,20.28,1.22-4.73,1.42-9-1.58-12.63,2.16,6.44-.48,13.72-4,17.78l.21,2A48.42,48.42,0,0,0,45,117a1.79,1.79,0,0,1-.92,2.52c-4.34,1.77-8.65-1.21-11.8-5.76-3.14,4.55-7.45,7.53-11.79,5.76a1.79,1.79,0,0,1-.92-2.52,50,50,0,0,0,3.57-8.64A19.72,19.72,0,0,1,19,102.4a1.92,1.92,0,0,1-1.53.24c-4.24-1-7.12-7-7.78-12.74a2.79,2.79,0,0,1-.72-.29C5.66,87.67,4.3,83.06,4.84,78.92a2.12,2.12,0,0,1-.74-.39C1.08,76.1.58,71,2,66.87a1.85,1.85,0,0,1-.64-.36l-.22-.23c-2.06-2.46-1-6.43.13-8.85A10.65,10.65,0,0,0,2.14,53c0-6.36,1.77-12,5.38-15.93l.2-.2c-1.33-3.07-.74-5.83.79-8.94,3.15-1.22,7-.91,9.5,1a4.17,4.17,0,0,1,1.24-.45c0-7.77,8-7,10.67-.17a10.22,10.22,0,0,1,.69,2.89C31.06,31.56,32.39,32.67,33.08,33.28ZM19.6,88.3,19.29,88c-3.05,3.69-2.92,7.91-1.77,12.53-4.76-1.63-8.33-14.27-4.28-19.85l.28-.39-.48.05c-2.67.29-3.65,3.95-3.44,7.26-3.4-2.49-4-10-.38-13.68l.47-.47L9,73.59a4.29,4.29,0,0,0-3.89,3.17C2.56,74.34,2.57,68,5.68,64.53c0-.26,0-.33-.07-.38A1.23,1.23,0,0,0,5.38,64,1.94,1.94,0,0,0,4.65,64a3.13,3.13,0,0,0-2,.91,3.57,3.57,0,0,1-.53-1.33,8.7,8.7,0,0,1,1-5.24,12.67,12.67,0,0,0,1-5.28c0-6,1.64-11,4.74-14.44A8.29,8.29,0,0,0,12,39l.68,0-.57-.37a5.67,5.67,0,0,1-1.85-2l-.11-.21c-1.44-2.72-1.55-4.27-.24-7a7.28,7.28,0,0,1,7.74,1.48,23.69,23.69,0,0,1,3.64-.53c1,0,3.51.22,4.16.84-.27-1.45-2.78-2.34-4.14-2.53,0-1.8.64-3.21,1.79-3.68,1.7-.7,4.09.89,5.24,3.82a7.77,7.77,0,0,1,.57,3.31l.42.22a8.51,8.51,0,0,1,.91.64,13,13,0,0,1,2.26,2.36A13.9,13.9,0,0,1,34.65,39,6.35,6.35,0,0,1,35,40.43a25,25,0,0,0,1.42,4.93c.57,1.47,1.18,2.78,1.64,3.9.93,2.29,1.09,3.54-.61,4.06l-.06.24,0,.26a3.32,3.32,0,0,1,0,.7,1.48,1.48,0,0,1-1.22,1.27,2.85,2.85,0,0,0-1.3.7,5.09,5.09,0,0,0-.4.41,4,4,0,0,1-.34.37,3.8,3.8,0,0,1-.33.28,8.82,8.82,0,0,1-1.21.22H32.2a9.55,9.55,0,0,1-2-.46c-.7-.23-1.4-.5-2.08-.76a5.74,5.74,0,0,0-1.76-.28A5.59,5.59,0,0,0,22,65.45a10.08,10.08,0,0,0,3.62,2.6l1.91.68a14.53,14.53,0,0,1,1.66.71,9,9,0,0,1,3,2.62,2.57,2.57,0,0,0,.61.07c2.72,0,6.22,2.81,6.22,5.47a32,32,0,0,1-.94,6.54,50.88,50.88,0,0,0,4.93,33.55c-6.48,2.24-15.71-11.6-14.39-25.12l-.38-.18c-1.92,5.33-2.51,10.53-.42,16.47C22.91,107.66,16.61,97.2,19.6,88.3Z"/></g></g></svg>